<?xml version="1.0" encoding="iso-8859-1"?>
<!-- Uploaded to: SVG Repo, www.svgrepo.com, Generator: SVG Repo Mixer Tools -->
<svg fill="#000000" height="800px" width="800px" version="1.1" id="Layer_1" xmlns="http://www.w3.org/2000/svg" xmlns:xlink="http://www.w3.org/1999/xlink" 
	 viewBox="0 0 512 512" xml:space="preserve">
<g>
	<g>
		<g>
			<path d="M422.741,42.667h-60.07V32.491C362.671,14.543,348.128,0,330.18,0H181.828c-17.947,0-32.491,14.543-32.491,32.491v10.176
				H89.259c-25.734,0-46.592,20.858-46.592,46.592v376.149c0,25.734,20.858,46.592,46.592,46.592h333.483
				c25.734,0,46.592-20.858,46.592-46.592V89.259C469.333,63.525,448.475,42.667,422.741,42.667z M192.004,42.667H320v42.667
				H192.004V42.667z M426.667,465.408c0,2.17-1.755,3.925-3.925,3.925H89.259c-2.17,0-3.925-1.755-3.925-3.925V89.259
				c0-2.17,1.755-3.925,3.925-3.925h60.075v10.176c0,17.947,14.543,32.491,32.491,32.491h0.004h148.348h0.004
				c17.947,0,32.491-14.543,32.491-32.491V85.333h60.07c2.17,0,3.925,1.755,3.925,3.925V465.408z"/>
			<path d="M356.418,326.248c-1.878-1.878-4.027-3.31-6.313-4.341c7.963-12.973,12.561-28.235,12.561-44.574
				c0-47.131-38.202-85.333-85.333-85.333h-128C137.551,192,128,201.551,128,213.333c0,11.782,9.551,21.333,21.333,21.333h54.11
				C196.178,247.221,192,261.784,192,277.333h-42.667c-11.782,0-21.333,9.551-21.333,21.333c0,11.782,9.551,21.333,21.333,21.333
				h54.11c14.756,25.5,42.308,42.667,73.89,42.667c16.339,0,31.601-4.598,44.574-12.561c1.031,2.286,2.463,4.435,4.341,6.313
				l42.667,42.667c8.331,8.331,21.839,8.331,30.17,0c8.331-8.331,8.331-21.839,0-30.17L356.418,326.248z M277.333,320
				c-23.567,0-42.667-19.099-42.667-42.667s19.099-42.667,42.667-42.667S320,253.766,320,277.333S300.901,320,277.333,320z"/>
		</g>
	</g>
</g>
</svg>